<?xml version="1.0" encoding="UTF-8"?>
<!DOCTYPE svg PUBLIC "-//W3C//DTD SVG 1.1//EN" "http://www.w3.org/Graphics/SVG/1.1/DTD/svg11.dtd">
<svg xmlns="http://www.w3.org/2000/svg" version="1.1" width="1024px" height="1024px" style="shape-rendering:geometricPrecision; text-rendering:geometricPrecision; image-rendering:optimizeQuality; fill-rule:evenodd; clip-rule:evenodd" xmlns:xlink="http://www.w3.org/1999/xlink">
<g><path style="opacity:0.091" fill="#343434" d="M 643.5,203.5 C 574.335,204.499 505.002,204.833 435.5,204.5C 435.833,409.001 435.5,613.334 434.5,817.5C 433.335,613.236 433.168,408.903 434,204.5C 503.762,203.502 573.596,203.169 643.5,203.5 Z"/></g>
<g><path style="opacity:0.992" fill="#000000" d="M 643.5,203.5 C 646.059,203.198 648.393,203.532 650.5,204.5C 653.223,205.494 656.723,206.161 661,206.5C 662.385,206.486 663.551,206.152 664.5,205.5C 665.791,205.263 666.791,205.596 667.5,206.5C 668.614,207.68 670.614,208.347 673.5,208.5C 674.726,208.48 675.726,208.147 676.5,207.5C 677.492,207.328 678.158,207.662 678.5,208.5C 678.859,209.626 680.192,210.292 682.5,210.5C 683.416,210.457 684.083,210.124 684.5,209.5C 685.492,209.328 686.158,209.662 686.5,210.5C 688.11,211.959 690.61,212.959 694,213.5C 694.765,213.43 695.265,213.097 695.5,212.5C 696.492,212.328 697.158,212.662 697.5,213.5C 699.234,215.289 701.901,216.622 705.5,217.5C 706.107,217.376 706.44,217.043 706.5,216.5C 709.48,217.323 712.147,218.657 714.5,220.5C 718.849,223.341 723.516,225.674 728.5,227.5C 744.836,235.186 759.169,245.519 771.5,258.5C 774.833,262.5 778.5,266.167 782.5,269.5C 807.694,295.859 825.194,326.859 835,362.5C 837.717,374.139 840.217,385.805 842.5,397.5C 841.421,402.552 841.754,407.552 843.5,412.5C 849.404,468.478 838.238,520.811 810,569.5C 764.996,638.339 700.996,671.006 618,667.5C 600.18,666.395 582.347,666.228 564.5,667C 563.874,667.75 563.374,668.584 563,669.5C 562.995,719.642 562.329,769.642 561,819.5C 523.561,818.765 486.061,818.765 448.5,819.5C 443.639,819.187 438.972,818.52 434.5,817.5C 435.5,613.334 435.833,409.001 435.5,204.5C 505.002,204.833 574.335,204.499 643.5,203.5 Z M 727.5,442.5 C 727.013,443.473 726.513,444.473 726,445.5C 723.004,447.733 720.171,450.066 717.5,452.5C 714.296,453.383 711.629,455.05 709.5,457.5C 702.725,461.057 696.058,464.89 689.5,469C 684.985,472.03 680.651,475.197 676.5,478.5C 669.739,482.078 663.072,485.911 656.5,490C 655.619,490.708 654.953,491.542 654.5,492.5C 651.802,492.845 649.802,494.178 648.5,496.5C 635.623,503.72 623.289,511.72 611.5,520.5C 608.802,520.845 606.802,522.178 605.5,524.5C 603.326,524.75 601.659,525.75 600.5,527.5C 598.147,528.34 596.147,529.674 594.5,531.5C 592.973,531.427 591.973,532.094 591.5,533.5C 588.296,534.383 585.629,536.05 583.5,538.5C 581.973,538.427 580.973,539.094 580.5,540.5C 576.901,541.344 573.234,541.677 569.5,541.5C 565.31,539.133 563.143,535.466 563,530.5C 562.333,469.833 562.333,409.167 563,348.5C 562.634,335.85 568.467,331.017 580.5,334C 627.23,365.06 674.23,395.727 721.5,426C 727.585,430.094 729.585,435.594 727.5,442.5 Z"/></g>
<g><path style="opacity:0.012" fill="#313030" d="M 650.5,204.5 C 655.193,204.54 659.859,204.873 664.5,205.5C 663.551,206.152 662.385,206.486 661,206.5C 656.723,206.161 653.223,205.494 650.5,204.5 Z"/></g>
<g><path style="opacity:0.991" fill="#000000" d="M 185.5,204.5 C 190.098,205.619 195.431,206.619 201.5,207.5C 202.416,207.457 203.083,207.124 203.5,206.5C 204.167,206.5 204.5,206.833 204.5,207.5C 208.139,209.045 211.973,210.379 216,211.5C 216.765,211.43 217.265,211.097 217.5,210.5C 265.596,231.102 294.763,267.102 305,318.5C 305.97,327.16 306.803,335.827 307.5,344.5C 306.434,450.443 306.434,556.443 307.5,662.5C 308.122,664.335 309.456,665.502 311.5,666C 338.165,666.5 364.831,666.667 391.5,666.5C 391.5,717.167 391.5,767.833 391.5,818.5C 341.611,825.358 295.611,815.191 253.5,788C 244.673,781.005 236.34,773.505 228.5,765.5C 226.57,761.9 223.903,758.9 220.5,756.5C 200.818,734.47 187.985,708.804 182,679.5C 180.599,671.857 179.432,664.19 178.5,656.5C 179.5,506.001 179.833,355.334 179.5,204.5C 181.5,203.167 183.5,203.167 185.5,204.5 Z"/></g>
<g><path style="opacity:0.02" fill="#2e2e2d" d="M 185.5,204.5 C 191.581,204.514 197.581,205.181 203.5,206.5C 203.083,207.124 202.416,207.457 201.5,207.5C 195.431,206.619 190.098,205.619 185.5,204.5 Z"/></g>
<g><path style="opacity:0.91" fill="#2e2e2d" d="M 667.5,206.5 C 670.518,206.704 673.518,207.037 676.5,207.5C 675.726,208.147 674.726,208.48 673.5,208.5C 670.614,208.347 668.614,207.68 667.5,206.5 Z"/></g>
<g><path style="opacity:0.902" fill="#2c2b2b" d="M 204.5,207.5 C 208.949,208.029 213.282,209.029 217.5,210.5C 217.265,211.097 216.765,211.43 216,211.5C 211.973,210.379 208.139,209.045 204.5,207.5 Z"/></g>
<g><path style="opacity:0.008" fill="#363635" d="M 678.5,208.5 C 680.565,208.517 682.565,208.85 684.5,209.5C 684.083,210.124 683.416,210.457 682.5,210.5C 680.192,210.292 678.859,209.626 678.5,208.5 Z"/></g>
<g><path style="opacity:0.878" fill="#2f2f2e" d="M 686.5,210.5 C 689.539,211.01 692.539,211.677 695.5,212.5C 695.265,213.097 694.765,213.43 694,213.5C 690.61,212.959 688.11,211.959 686.5,210.5 Z"/></g>
<g><path style="opacity:0.886" fill="#2f2e2e" d="M 697.5,213.5 C 700.598,214.216 703.598,215.216 706.5,216.5C 706.44,217.043 706.107,217.376 705.5,217.5C 701.901,216.622 699.234,215.289 697.5,213.5 Z"/></g>
<g><path style="opacity:0.09" fill="#313131" d="M 714.5,220.5 C 719.753,221.793 724.419,224.126 728.5,227.5C 723.516,225.674 718.849,223.341 714.5,220.5 Z"/></g>
<g><path style="opacity:0.004" fill="#2f2e2f" d="M 771.5,258.5 C 776.167,261.167 779.833,264.833 782.5,269.5C 778.5,266.167 774.833,262.5 771.5,258.5 Z"/></g>
<g><path style="opacity:0.922" fill="#232223" d="M 842.5,397.5 C 842.916,402.493 843.249,407.493 843.5,412.5C 841.754,407.552 841.421,402.552 842.5,397.5 Z"/></g>
<g><path style="opacity:0.788" fill="#333233" d="M 179.5,204.5 C 179.833,355.334 179.5,506.001 178.5,656.5C 178.823,509.16 178.489,361.826 177.5,214.5C 177.315,210.859 177.981,207.526 179.5,204.5 Z"/></g>
<g><path style="opacity:0.784" fill="#363636" d="M 727.5,442.5 C 728.465,443.721 728.298,445.054 727,446.5C 724.199,449.147 721.032,451.147 717.5,452.5C 720.171,450.066 723.004,447.733 726,445.5C 726.513,444.473 727.013,443.473 727.5,442.5 Z"/></g>
<g><path style="opacity:0.835" fill="#3b3b3c" d="M 717.5,452.5 C 715.371,454.95 712.704,456.617 709.5,457.5C 711.629,455.05 714.296,453.383 717.5,452.5 Z"/></g>
<g><path style="opacity:0.843" fill="#3b3b3b" d="M 709.5,457.5 C 699.016,465.246 688.016,472.246 676.5,478.5C 680.651,475.197 684.985,472.03 689.5,469C 696.058,464.89 702.725,461.057 709.5,457.5 Z"/></g>
<g><path style="opacity:0.863" fill="#373738" d="M 676.5,478.5 C 669.852,484.162 662.519,488.829 654.5,492.5C 654.953,491.542 655.619,490.708 656.5,490C 663.072,485.911 669.739,482.078 676.5,478.5 Z"/></g>
<g><path style="opacity:0.78" fill="#444444" d="M 654.5,492.5 C 652.853,494.326 650.853,495.66 648.5,496.5C 649.802,494.178 651.802,492.845 654.5,492.5 Z"/></g>
<g><path style="opacity:0.863" fill="#393939" d="M 648.5,496.5 C 636.686,505.244 624.353,513.244 611.5,520.5C 623.289,511.72 635.623,503.72 648.5,496.5 Z"/></g>
<g><path style="opacity:0.808" fill="#3a3b3a" d="M 611.5,520.5 C 609.853,522.326 607.853,523.66 605.5,524.5C 606.802,522.178 608.802,520.845 611.5,520.5 Z"/></g>
<g><path style="opacity:0.82" fill="#333434" d="M 600.5,527.5 C 599.198,529.822 597.198,531.155 594.5,531.5C 596.147,529.674 598.147,528.34 600.5,527.5 Z"/></g>
<g><path style="opacity:0.569" fill="#343535" d="M 591.5,533.5 C 589.371,535.95 586.704,537.617 583.5,538.5C 585.629,536.05 588.296,534.383 591.5,533.5 Z"/></g>
<g><path style="opacity:0.851" fill="#212021" d="M 580.5,540.5 C 577.096,543.937 573.429,544.27 569.5,541.5C 573.234,541.677 576.901,541.344 580.5,540.5 Z"/></g>
<g><path style="opacity:0.647" fill="#171616" d="M 307.5,662.5 C 308.473,662.987 309.473,663.487 310.5,664C 337.844,664.259 365.177,664.759 392.5,665.5C 392.832,716.669 392.499,767.669 391.5,818.5C 391.5,767.833 391.5,717.167 391.5,666.5C 364.831,666.667 338.165,666.5 311.5,666C 309.456,665.502 308.122,664.335 307.5,662.5 Z"/></g>
<g><path style="opacity:0.004" fill="#202020" d="M 220.5,756.5 C 223.903,758.9 226.57,761.9 228.5,765.5C 225.097,763.1 222.43,760.1 220.5,756.5 Z"/></g>
</svg>
